HIERARCHY
ROOT Hips
{
  OFFSET -54.4136 91.7386 -52.0919
  CHANNELS 6 Xposition Yposition Zposition Zrotation Xrotation Yrotation
  JOINT Spine
  {
    OFFSET 0 8 0
    CHANNELS 6 Xposition Yposition Zposition Zrotation Xrotation Yrotation
    JOINT Spine1
    {
      OFFSET 0 8 0
      CHANNELS 6 Xposition Yposition Zposition Zrotation Xrotation Yrotation
      JOINT Spine2
      {
        OFFSET 0 8 0
        CHANNELS 6 Xposition Yposition Zposition Zrotation Xrotation Yrotation
        JOINT Spine3
        {
          OFFSET 0 8 0
          CHANNELS 6 Xposition Yposition Zposition Zrotation Xrotation Yrotation
          JOINT Neck
          {
            OFFSET 0 17 0
            CHANNELS 6 Xposition Yposition Zposition Zrotation Xrotation Yrotation
            JOINT Head
            {
              OFFSET 0 10.8 0
              CHANNELS 6 Xposition Yposition Zposition Zrotation Xrotation Yrotation
              End Site
              {
                OFFSET 0 20.25 0
              }
            }
          }
          JOINT LeftShoulder
          {
            OFFSET 5 17 0
            CHANNELS 6 Xposition Yposition Zposition Zrotation Xrotation Yrotation
            JOINT LeftShoulder2
            {
              OFFSET 6.45 0 0
              CHANNELS 6 Xposition Yposition Zposition Zrotation Xrotation Yrotation
              JOINT LeftArm
              {
                OFFSET 6.45 0 0
                CHANNELS 6 Xposition Yposition Zposition Zrotation Xrotation Yrotation
                JOINT LeftForeArm
                {
                  OFFSET 0 -32.4 -2
                  CHANNELS 6 Xposition Yposition Zposition Zrotation Xrotation Yrotation
                  JOINT LeftHand
                  {
                    OFFSET 0 -25.65 2
                    CHANNELS 6 Xposition Yposition Zposition Zrotation Xrotation Yrotation
                    JOINT LeftHandThumb1
                    {
                      OFFSET -0.5 -1.5 2.65
                      CHANNELS 6 Xposition Yposition Zposition Zrotation Xrotation Yrotation
                      JOINT LeftHandThumb2
                      {
                        OFFSET 0 -3.8 3.7
                        CHANNELS 6 Xposition Yposition Zposition Zrotation Xrotation Yrotation
                        JOINT LeftHandThumb3
                        {
                          OFFSET 0 -3 2.7
                          CHANNELS 6 Xposition Yposition Zposition Zrotation Xrotation Yrotation
                          End Site
                          {
                            OFFSET 0 -2.3 1.8
                          }
                        }
                      }
                    }
                    JOINT LeftHandIndex
                    {
                      OFFSET 0 -1.9 1.6
                      CHANNELS 6 Xposition Yposition Zposition Zrotation Xrotation Yrotation
                      JOINT LeftHandIndex1
                      {
                        OFFSET 0 -8.3 1.9
                        CHANNELS 6 Xposition Yposition Zposition Zrotation Xrotation Yrotation
                        JOINT LeftHandIndex2
                        {
                          OFFSET 0 -4.5 0
                          CHANNELS 6 Xposition Yposition Zposition Zrotation Xrotation Yrotation
                          JOINT LeftHandIndex3
                          {
                            OFFSET 0 -3.4 0
                            CHANNELS 6 Xposition Yposition Zposition Zrotation Xrotation Yrotation
                            End Site
                            {
                              OFFSET 0 -2.6 0
                            }
                          }
                        }
                      }
                    }
                    JOINT LeftHandMiddle
                    {
                      OFFSET -0.25 -2.2 0.4
                      CHANNELS 6 Xposition Yposition Zposition Zrotation Xrotation Yrotation
                      JOINT LeftHandMiddle1
                      {
                        OFFSET 0 -8.3 1
                        CHANNELS 6 Xposition Yposition Zposition Zrotation Xrotation Yrotation
                        JOINT LeftHandMiddle2
                        {
                          OFFSET 0 -4.65 0
                          CHANNELS 6 Xposition Yposition Zposition Zrotation Xrotation Yrotation
                          JOINT LeftHandMiddle3
                          {
                            OFFSET 0 -3.3 0
                            CHANNELS 6 Xposition Yposition Zposition Zrotation Xrotation Yrotation
                            End Site
                            {
                              OFFSET 0 -2.7 0
                            }
                          }
                        }
                      }
                    }
                    JOINT LeftHandRing
                    {
                      OFFSET -0.5 -2.15 -0.8
                      CHANNELS 6 Xposition Yposition Zposition Zrotation Xrotation Yrotation
                      JOINT LeftHandRing1
                      {
                        OFFSET 0 -7.75 -0.2
                        CHANNELS 6 Xposition Yposition Zposition Zrotation Xrotation Yrotation
                        JOINT LeftHandRing2
                        {
                          OFFSET 0 -3.8 0
                          CHANNELS 6 Xposition Yposition Zposition Zrotation Xrotation Yrotation
                          JOINT LeftHandRing3
                          {
                            OFFSET 0 -3.4 0
                            CHANNELS 6 Xposition Yposition Zposition Zrotation Xrotation Yrotation
                            End Site
                            {
                              OFFSET 0 -2.6 0
                            }
                          }
                        }
                      }
                    }
                    JOINT LeftHandPinky
                    {
                      OFFSET -0.75 -1.75 -1.85
                      CHANNELS 6 Xposition Yposition Zposition Zrotation Xrotation Yrotation
                      JOINT LeftHandPinky1
                      {
                        OFFSET 0 -7.15 -1
                        CHANNELS 6 Xposition Yposition Zposition Zrotation Xrotation Yrotation
                        JOINT LeftHandPinky2
                        {
                          OFFSET 0 -3 0
                          CHANNELS 6 Xposition Yposition Zposition Zrotation Xrotation Yrotation
                          JOINT LeftHandPinky3
                          {
                            OFFSET 0 -2.35 0
                            CHANNELS 6 Xposition Yposition Zposition Zrotation Xrotation Yrotation
                            End Site
                            {
                              OFFSET 0 -2.1 0
                            }
                          }
                        }
                      }
                    }
                  }
                }
              }
            }
          }
          JOINT RightShoulder
          {
            OFFSET -5 17 0
            CHANNELS 6 Xposition Yposition Zposition Zrotation Xrotation Yrotation
            JOINT RightShoulder2
            {
              OFFSET -6.45 0 0
              CHANNELS 6 Xposition Yposition Zposition Zrotation Xrotation Yrotation
              JOINT RightArm
              {
                OFFSET -6.45 0 0
                CHANNELS 6 Xposition Yposition Zposition Zrotation Xrotation Yrotation
                JOINT RightForeArm
                {
                  OFFSET 0 -32.4 -2
                  CHANNELS 6 Xposition Yposition Zposition Zrotation Xrotation Yrotation
                  JOINT RightHand
                  {
                    OFFSET 0 -25.65 2
                    CHANNELS 6 Xposition Yposition Zposition Zrotation Xrotation Yrotation
                    JOINT RightHandThumb1
                    {
                      OFFSET 0.5 -1.5 2.65
                      CHANNELS 6 Xposition Yposition Zposition Zrotation Xrotation Yrotation
                      JOINT RightHandThumb2
                      {
                        OFFSET 0 -3.8 3.7
                        CHANNELS 6 Xposition Yposition Zposition Zrotation Xrotation Yrotation
                        JOINT RightHandThumb3
                        {
                          OFFSET 0 -3 2.7
                          CHANNELS 6 Xposition Yposition Zposition Zrotation Xrotation Yrotation
                          End Site
                          {
                            OFFSET 0 -2.3 1.8
                          }
                        }
                      }
                    }
                    JOINT RightHandIndex
                    {
                      OFFSET 0 -1.9 1.6
                      CHANNELS 6 Xposition Yposition Zposition Zrotation Xrotation Yrotation
                      JOINT RightHandIndex1
                      {
                        OFFSET 0 -8.3 1.9
                        CHANNELS 6 Xposition Yposition Zposition Zrotation Xrotation Yrotation
                        JOINT RightHandIndex2
                        {
                          OFFSET 0 -4.5 0
                          CHANNELS 6 Xposition Yposition Zposition Zrotation Xrotation Yrotation
                          JOINT RightHandIndex3
                          {
                            OFFSET 0 -3.4 0
                            CHANNELS 6 Xposition Yposition Zposition Zrotation Xrotation Yrotation
                            End Site
                            {
                              OFFSET 0 -2.6 0
                            }
                          }
                        }
                      }
                    }
                    JOINT RightHandMiddle
                    {
                      OFFSET 0.25 -2.2 0.4
                      CHANNELS 6 Xposition Yposition Zposition Zrotation Xrotation Yrotation
                      JOINT RightHandMiddle1
                      {
                        OFFSET 0 -8.3 1
                        CHANNELS 6 Xposition Yposition Zposition Zrotation Xrotation Yrotation
                        JOINT RightHandMiddle2
                        {
                          OFFSET 0 -4.65 0
                          CHANNELS 6 Xposition Yposition Zposition Zrotation Xrotation Yrotation
                          JOINT RightHandMiddle3
                          {
                            OFFSET 0 -3.3 0
                            CHANNELS 6 Xposition Yposition Zposition Zrotation Xrotation Yrotation
                            End Site
                            {
                              OFFSET 0 -2.7 0
                            }
                          }
                        }
                      }
                    }
                    JOINT RightHandRing
                    {
                      OFFSET 0.5 -2.15 -0.8
                      CHANNELS 6 Xposition Yposition Zposition Zrotation Xrotation Yrotation
                      JOINT RightHandRing1
                      {
                        OFFSET 0 -7.75 -0.2
                        CHANNELS 6 Xposition Yposition Zposition Zrotation Xrotation Yrotation
                        JOINT RightHandRing2
                        {
                          OFFSET 0 -3.8 0
                          CHANNELS 6 Xposition Yposition Zposition Zrotation Xrotation Yrotation
                          JOINT RightHandRing3
                          {
                            OFFSET 0 -3.4 0
                            CHANNELS 6 Xposition Yposition Zposition Zrotation Xrotation Yrotation
                            End Site
                            {
                              OFFSET 0 -2.6 0
                            }
                          }
                        }
                      }
                    }
                    JOINT RightHandPinky
                    {
                      OFFSET 0.75 -1.75 -1.85
                      CHANNELS 6 Xposition Yposition Zposition Zrotation Xrotation Yrotation
                      JOINT RightHandPinky1
                      {
                        OFFSET 0 -7.15 -1
                        CHANNELS 6 Xposition Yposition Zposition Zrotation Xrotation Yrotation
                        JOINT RightHandPinky2
                        {
                          OFFSET 0 -3 0
                          CHANNELS 6 Xposition Yposition Zposition Zrotation Xrotation Yrotation
                          JOINT RightHandPinky3
                          {
                            OFFSET 0 -2.35 0
                            CHANNELS 6 Xposition Yposition Zposition Zrotation Xrotation Yrotation
                            End Site
                            {
                              OFFSET 0 -2.1 0
                            }
                          }
                        }
                      }
                    }
                  }
                }
              }
            }
          }
        }
      }
    }
  }
  JOINT LeftUpLeg
  {
    OFFSET 8 0 0
    CHANNELS 6 Xposition Yposition Zposition Zrotation Xrotation Yrotation
    JOINT LeftLeg
    {
      OFFSET 0 -45 -1
      CHANNELS 6 Xposition Yposition Zposition Zrotation Xrotation Yrotation
      JOINT LeftFoot
      {
        OFFSET 0 -41 -2
        CHANNELS 6 Xposition Yposition Zposition Zrotation Xrotation Yrotation
        JOINT LeftToeBase
        {
          OFFSET 0 -7.5 12.5
          CHANNELS 6 Xposition Yposition Zposition Zrotation Xrotation Yrotation
          JOINT LeftFootToe
          {
            OFFSET 0 0 4
            CHANNELS 6 Xposition Yposition Zposition Zrotation Xrotation Yrotation
            End Site
            {
              OFFSET 0 0 0
            }
          }
        }
      }
    }
  }
  JOINT RightUpLeg
  {
    OFFSET -8 0 0
    CHANNELS 6 Xposition Yposition Zposition Zrotation Xrotation Yrotation
    JOINT RightLeg
    {
      OFFSET 0 -45 -1
      CHANNELS 6 Xposition Yposition Zposition Zrotation Xrotation Yrotation
      JOINT RightFoot
      {
        OFFSET 0 -41 -2
        CHANNELS 6 Xposition Yposition Zposition Zrotation Xrotation Yrotation
        JOINT RightToeBase
        {
          OFFSET 0 -7.5 12.5
          CHANNELS 6 Xposition Yposition Zposition Zrotation Xrotation Yrotation
          JOINT RightFootToe
          {
            OFFSET 0 0 4
            CHANNELS 6 Xposition Yposition Zposition Zrotation Xrotation Yrotation
            End Site
            {
              OFFSET 0 0 0
            }
          }
        }
      }
    }
  }
}
MOTION
Frames:	3
Frame Time:	0.0111111
-3.8147e-06 93.5 0 -7.95139e-16 3.97569e-16 1.02698e-12 1e-05 8 1e-05 9.59521e-06 -1.56468e-06 -1.12337e-05 1e-05 8 1e-05 2.88372e-06 -1.2144e-06 1.40473e-06 1e-05 8 1e-05 3.19103e-07 1.47002e-06 1.34563e-05 1e-05 8 1e-05 1.8498e-21 1.89576e-22 7.58303e-22 1e-05 17 1e-05 -1.18098e-08 -7.37096e-05 -1.55913e-05 1e-05 10.8 1e-05 1.27612e-06 4.41413e-06 1.19754e-05 5 17 1e-05 2.30611e-06 7.46682e-07 -9.511e-06 6.45 1e-05 1e-05 -2.95126e-21 -9.47879e-23 -7.58303e-22 6.45 1e-05 1e-05 87.2021 -4.912 6.63752 1e-05 -32.4 -2 -0.000207151 -0.000221633 0.000105182 1e-05 -25.65 2 -1.52071e-05 2.13174e-05 -4.76299e-05 -0.5 -1.5 2.65 4.35377e-07 1.1436e-05 -5.26409e-06 1e-05 -3.8 3.7 2.19238e-07 4.70138e-06 -1.22879e-06 1e-05 -3 2.7 1.78416e-07 3.79039e-06 -9.52129e-07 1e-05 -1.9 1.6 -3.97569e-16 7.95139e-16 -0 1e-05 -8.3 1.9 -8.84736e-06 1.02163e-05 5.62862e-06 1e-05 -4.5 1e-05 -0.000248312 0.00298984 -0.0138759 1e-05 -3.4 1e-05 5.07016e-06 3.11803e-06 -0.00548807 -0.25 -2.2 0.4 -3.97569e-16 7.95139e-16 -0 1e-05 -8.3 1 -2.38921e-07 -4.37612e-06 3.34003e-07 1e-05 -4.65 1e-05 -0.000198557 -0.00386056 6.59446e-06 1e-05 -3.3 1e-05 -3.11034e-06 3.60588e-06 -0.00574674 -0.5 -2.15 -0.8 -3.97569e-16 7.95139e-16 -0 1e-05 -7.75 -0.2 1.81727e-05 -1.68365e-05 -4.98623e-06 1e-05 -3.8 1e-05 -0.000490898 -0.00241161 1.59935e-06 1e-05 -3.4 1e-05 6.80148e-06 -0.00218051 1.96069e-06 -0.75 -1.75 -1.85 -3.97569e-16 7.95139e-16 -0 1e-05 -7.15 -1 -1.47976e-07 -8.65376e-06 8.20019e-06 1e-05 -3 1e-05 -0.000796979 3.73425e-06 0.00191566 1e-05 -2.35 1e-05 4.24101e-06 -5.82044e-06 -3.07083e-06 -5 17 1e-05 3.95463e-06 -1.44599e-06 1.98418e-06 -6.45 1e-05 1e-05 -6.46352e-21 -7.58303e-22 2.27491e-21 -6.45 1e-05 1e-05 -91.7826 1.41131 -5.23756 1e-05 -32.4 -2 7.56228e-05 -0.000257951 0.000325113 1e-05 -25.65 2 8.46803e-06 2.86311e-05 -8.78189e-06 0.5 -1.5 2.65 4.68379e-06 5.95682e-06 -3.54936e-06 1e-05 -3.8 3.7 4.74538e-06 3.00287e-06 -1.02238e-05 1e-05 -3 2.7 -4.1204e-06 -1.23974e-05 -5.60859e-06 1e-05 -1.9 1.6 3.83327e-08 -2.67458e-07 -2.1152e-06 1e-05 -8.3 1.9 9.16951e-06 1.06836e-05 8.80128e-07 1e-05 -4.5 1e-05 3.77288e-05 -0.00224997 -8.43497e-06 1e-05 -3.4 1e-05 1.00207e-05 -8.65957e-06 3.58378e-06 0.25 -2.2 0.4 3.83327e-08 -2.67458e-07 -2.1152e-06 1e-05 -8.3 1 -9.36168e-06 -6.62093e-06 -3.62305e-07 1e-05 -4.65 1e-05 1.70873e-05 -0.00194961 -5.01705e-06 1e-05 -3.3 1e-05 -7.8603e-06 3.16123e-06 0.0110106 0.5 -2.15 -0.8 3.83327e-08 -2.67458e-07 -2.1152e-06 1e-05 -7.75 -0.2 6.31793e-08 -3.27972e-06 7.03369e-06 1e-05 -3.8 1e-05 0.000187502 0.00202432 -1.13522e-05 1e-05 -3.4 1e-05 -1.4624e-05 6.33479e-06 -7.3718e-06 0.75 -1.75 -1.85 3.83327e-08 -2.67458e-07 -2.1152e-06 1e-05 -7.15 -1 -2.10604e-07 5.80097e-06 -4.42982e-06 1e-05 -3 1e-05 -9.62943e-06 -3.46506e-06 9.63991e-06 1e-05 -2.35 1e-05 7.38362e-06 0.0187351 -4.92135e-06 8 1e-05 1e-05 -0.00100808 -0.002729 2.14377e-05 1e-05 -45 -1 0.511352 0.0524457 10.4967 1e-05 -41 -2 -0.511053 0.0437714 7.01916 1e-05 -7.5 12.5 -2.42658e-20 -6.49711e-10 -6.36111e-15 1e-05 1e-05 4 1.2131e-20 4.85314e-20 0.00224135 -8 1e-05 1e-05 -3.04284e-05 0.00188294 1.5082e-05 1e-05 -45 -1 -1.08546e-08 -0.00394112 -1.38803e-05 1e-05 -41 -2 4.09093e-05 0.00207381 2.00423e-06 1e-05 -7.5 12.5 1.86711e-06 -1.02406e-07 3.2032e-07 1e-05 1e-05 4 -0.00156722 -0.00159828 -0 
-60.0611 93.8255 -78.2398 -4.99014 0.100949 42.2133 1e-05 8 1e-05 -8.16885 8.45029 -0.719189 1e-05 8 1e-05 -1.55508 4.30003 5.20377 1e-05 8 1e-05 -4.16638 -6.09971 30.2779 1e-05 8 1e-05 4.22277 0.951716 -15.6027 1e-05 17 1e-05 2.15174 0.256769 4.64654 1e-05 10.8 1e-05 4.98282 0.870388 10.8378 5 17 1e-05 1.23132 -0.0784378 -7.29817 6.45 1e-05 1e-05 1.23131 -0.0784267 -7.29825 6.45 1e-05 1e-05 13.8941 -39.9099 -18.3354 1e-05 -32.4 -2 -52.795 -59.3226 -89.1209 1e-05 -25.65 2 14.9465 -27.4373 -65.3716 -0.5 -1.5 2.65 -0.765321 -24.6537 13.5708 1e-05 -3.8 3.7 0.352636 10.9621 -0.276898 1e-05 -3 2.7 1.80128e-07 0.10302 -9.5213e-07 1e-05 -1.9 1.6 3.18055e-15 1.59028e-15 -3.97569e-16 1e-05 -8.3 1.9 -45.3804 -28.224 -10.7927 1e-05 -4.5 1e-05 -55.6527 0.00298984 -0.0138759 1e-05 -3.4 1e-05 -38.58 3.11803e-06 -0.00548807 -0.25 -2.2 0.4 3.18055e-15 1.59028e-15 -3.97569e-16 1e-05 -8.3 1 -58.6799 -23.6336 -10.1573 1e-05 -4.65 1e-05 -38.3173 -0.00386056 0.0131962 1e-05 -3.3 1e-05 -27.0701 3.60588e-06 -0.00574674 -0.5 -2.15 -0.8 3.18055e-15 1.59028e-15 -3.97569e-16 1e-05 -7.75 -0.2 -64.0085 -19.8562 -7.03874 1e-05 -3.8 1e-05 -54.1406 -0.00241161 0.0171266 1e-05 -3.4 1e-05 -37.4682 -0.00218051 1.96069e-06 -0.75 -1.75 -1.85 3.18055e-15 1.59028e-15 -3.97569e-16 1e-05 -7.15 -1 -53.3149 -24.5935 -6.31786 1e-05 -3 1e-05 -45.2391 3.73425e-06 0.00191566 1e-05 -2.35 1e-05 -31.3552 -5.82044e-06 -3.07083e-06 -5 17 1e-05 -0.577041 -0.0285638 5.647 -6.45 1e-05 1e-05 -0.577052 -0.0285542 5.64702 -6.45 1e-05 1e-05 -8.01117 -38.2004 -2.56271 1e-05 -32.4 -2 29.7673 -65.3709 -21.6251 1e-05 -25.65 2 -82.3902 -20.211 -47.8672 0.5 -1.5 2.65 28.2934 5.36951 6.20506 1e-05 -3.8 3.7 -0.775048 7.02032 0.769488 1e-05 -3 2.7 -0.604609 65.9799 0.562682 1e-05 -1.9 1.6 3.83327e-08 -2.67458e-07 -2.1152e-06 1e-05 -8.3 1.9 61.7819 25.5209 -18.4329 1e-05 -4.5 1e-05 60.7251 -0.00224997 -0.039183 1e-05 -3.4 1e-05 42.7976 -0.0241905 -0.0246976 0.25 -2.2 0.4 3.83327e-08 -2.67458e-07 -2.1152e-06 1e-05 -8.3 1 74.4135 18.2597 -18.8783 1e-05 -4.65 1e-05 83.7995 -0.00194961 -0.0174236 1e-05 -3.3 1e-05 73.4143 -0.0403329 0.0110106 0.5 -2.15 -0.8 3.83327e-08 -2.67458e-07 -2.1152e-06 1e-05 -7.75 -0.2 65.2773 21.0813 -18.6199 1e-05 -3.8 1e-05 79.0491 0.00202432 -0.0260002 1e-05 -3.4 1e-05 64.4953 -0.0381719 -0.0193237 0.75 -1.75 -1.85 3.83327e-08 -2.67458e-07 -2.1152e-06 1e-05 -7.15 -1 26.7116 16.8566 -5.37646 1e-05 -3 1e-05 49.2795 0.0258803 -0.0261722 1e-05 -2.35 1e-05 34.0493 0.0187351 -0.0245498 8 1e-05 1e-05 0.859453 -10.0138 -17.739 1e-05 -45 -1 0.918865 4.03913 19.7033 1e-05 -41 -2 0.776703 2.98555 -16.2851 1e-05 -7.5 12.5 4.85314e-20 -6.49711e-10 -3.18055e-15 1e-05 1e-05 4 3.20165 -4.41513 0.00224802 -8 1e-05 1e-05 27.8065 -59.6429 27.2169 1e-05 -45 -1 -29.7656 76.7365 38.5539 1e-05 -41 -2 -6.97768 1.3668 -7.8597 1e-05 -7.5 12.5 1.86711e-06 -1.02406e-07 3.2032e-07 1e-05 1e-05 4 -0.00156722 -0.00159828 -6.36111e-15 
-59.9166 93.8427 -78.2283 -5.12593 0.100479 42.1773 1e-05 8 1e-05 -8.14533 8.43787 -0.730566 1e-05 8 1e-05 -1.55459 4.30108 5.2101 1e-05 8 1e-05 -4.19571 -6.16282 30.276 1e-05 8 1e-05 4.24307 0.963847 -15.5749 1e-05 17 1e-05 2.21581 0.229378 4.48918 1e-05 10.8 1e-05 5.13713 0.805298 10.4704 5 17 1e-05 1.17474 -0.0747217 -7.28596 6.45 1e-05 1e-05 1.17474 -0.0747194 -7.28601 6.45 1e-05 1e-05 23.7458 -35.7294 -3.05156 1e-05 -32.4 -2 -53.2302 -59.3874 -89.698 1e-05 -25.65 2 15.3256 -28.1194 -65.5318 -0.5 -1.5 2.65 -0.284097 -24.6297 14.2547 1e-05 -3.8 3.7 0.35381 11.09 -0.273576 1e-05 -3 2.7 1.80128e-07 0.103019 -9.5213e-07 1e-05 -1.9 1.6 -1.32417e-31 3.18055e-15 2.38542e-15 1e-05 -8.3 1.9 -45.9986 -28.1064 -10.9051 1e-05 -4.5 1e-05 -55.4128 0.00298984 -0.0138759 1e-05 -3.4 1e-05 -38.4009 3.11803e-06 -0.00548807 -0.25 -2.2 0.4 -1.32417e-31 3.18055e-15 2.38542e-15 1e-05 -8.3 1 -59.2737 -23.4271 -10.1528 1e-05 -4.65 1e-05 -38.4661 -0.00386056 0.00219237 1e-05 -3.3 1e-05 -27.1592 3.60588e-06 -0.00574674 -0.5 -2.15 -0.8 -1.32417e-31 3.18055e-15 2.38542e-15 1e-05 -7.75 -0.2 -64.5118 -19.6374 -6.956 1e-05 -3.8 1e-05 -54.6075 -0.00241161 0.0095132 1e-05 -3.4 1e-05 -37.804 -0.00218051 1.96069e-06 -0.75 -1.75 -1.85 -1.32417e-31 3.18055e-15 2.38542e-15 1e-05 -7.15 -1 -54.2406 -24.3114 -6.29569 1e-05 -3 1e-05 -45.5263 3.73425e-06 0.00191566 1e-05 -2.35 1e-05 -31.5376 -5.82044e-06 -3.07083e-06 -5 17 1e-05 -0.545087 -0.0268551 5.62133 -6.45 1e-05 1e-05 -0.545092 -0.0268483 5.6213 -6.45 1e-05 1e-05 -8.10476 -38.0242 -2.60622 1e-05 -32.4 -2 30.3418 -65.5442 -20.7777 1e-05 -25.65 2 -82.7068 -19.8548 -47.5014 0.5 -1.5 2.65 28.0398 4.54838 6.43126 1e-05 -3.8 3.7 -0.766559 6.77951 0.762481 1e-05 -3 2.7 -0.622097 64.8058 0.586367 1e-05 -1.9 1.6 3.83327e-08 -2.67458e-07 -2.1152e-06 1e-05 -8.3 1.9 62.3016 25.3381 -18.391 1e-05 -4.5 1e-05 62.254 -0.00224997 -0.0468713 1e-05 -3.4 1e-05 44.2046 -0.0291756 -0.032146 0.25 -2.2 0.4 3.83327e-08 -2.67458e-07 -2.1152e-06 1e-05 -8.3 1 74.7271 17.9477 -18.7325 1e-05 -4.65 1e-05 84.5289 -0.00194961 -0.0169306 1e-05 -3.3 1e-05 74.9799 -0.039173 0.0110106 0.5 -2.15 -0.8 3.83327e-08 -2.67458e-07 -2.1152e-06 1e-05 -7.75 -0.2 65.8233 20.6172 -18.5042 1e-05 -3.8 1e-05 79.897 0.00202432 -0.0216629 1e-05 -3.4 1e-05 65.8835 -0.0324347 -0.0178475 0.75 -1.75 -1.85 3.83327e-08 -2.67458e-07 -2.1152e-06 1e-05 -7.15 -1 27.5675 16.6024 -5.48387 1e-05 -3 1e-05 50.2887 0.0226749 -0.0204252 1e-05 -2.35 1e-05 34.7293 0.0187351 -0.0203984 8 1e-05 1e-05 0.898828 -10.0273 -17.752 1e-05 -45 -1 1.1618 4.13325 25.0633 1e-05 -41 -2 0.845902 2.83494 -9.04771 1e-05 -7.5 12.5 9.70629e-20 -6.49711e-10 6.36111e-15 1e-05 1e-05 4 3.11516 -4.38891 0.00224794 -8 1e-05 1e-05 27.7923 -59.6325 27.1879 1e-05 -45 -1 -29.7141 76.6742 38.5341 1e-05 -41 -2 -7.02785 1.37985 -7.86695 1e-05 -7.5 12.5 1.86711e-06 -1.02406e-07 3.2032e-07 1e-05 1e-05 4 -0.00156722 -0.00159828 6.36111e-15 
